<svg xmlns="http://www.w3.org/2000/svg" width="1024" height="1024" viewBox="0 0 1024 1024" style="fill-rule:evenodd">
<defs>
  <linearGradient id="grad_1" x1="50.5658" y1="-26.6983" x2="351.816" y2="-185.755" gradientUnits="userSpaceOnUse">
    <stop offset="0" stop-color="rgb(41,130,243)"/>
    <stop offset="0.0454545" stop-color="rgb(38,133,244)"/>
    <stop offset="0.0909091" stop-color="rgb(42,137,242)"/>
    <stop offset="0.136364" stop-color="rgb(41,143,241)"/>
    <stop offset="0.181818" stop-color="rgb(41,143,241)"/>
    <stop offset="0.545455" stop-color="rgb(39,165,241)"/>
    <stop offset="0.590909" stop-color="rgb(30,168,239)"/>
    <stop offset="0.681818" stop-color="rgb(33,182,239)"/>
    <stop offset="0.772727" stop-color="rgb(22,188,238)"/>
    <stop offset="0.863636" stop-color="rgb(31,197,239)"/>
    <stop offset="0.909091" stop-color="rgb(35,203,239)"/>
    <stop offset="0.954545" stop-color="rgb(25,209,240)"/>
    <stop offset="1" stop-color="rgb(37,204,240)"/>
  </linearGradient>
  <radialGradient id="radgrad_2" cx="751.387" cy="109.061" fx="765.937" fy="105.922" r="85.1732" gradientUnits="userSpaceOnUse" gradientTransform="matrix(0.253662 0.967293 5.80376 -1.52197 0 0)">
    <stop offset="0" stop-color="rgb(55,142,241)"/>
    <stop offset="0.525739" stop-color="rgb(55,142,241)"/>
    <stop offset="0.548323" stop-color="rgb(35,144,244)"/>
    <stop offset="0.570907" stop-color="rgb(38,147,242)"/>
    <stop offset="0.593491" stop-color="rgb(36,146,241)"/>
    <stop offset="0.638658" stop-color="rgb(43,142,244)"/>
    <stop offset="0.683826" stop-color="rgb(40,141,243)"/>
    <stop offset="0.70641" stop-color="rgb(39,140,244)"/>
    <stop offset="0.751578" stop-color="rgb(34,135,246)"/>
    <stop offset="0.774162" stop-color="rgb(40,134,245)"/>
    <stop offset="0.819329" stop-color="rgb(45,133,242)"/>
    <stop offset="0.864497" stop-color="rgb(47,128,244)"/>
    <stop offset="0.954832" stop-color="rgb(42,124,244)"/>
    <stop offset="0.977416" stop-color="rgb(46,123,239)"/>
    <stop offset="1" stop-color="rgb(44,124,234)"/>
  </radialGradient>
  <radialGradient id="radgrad_3" cx="890.587" cy="50.7353" fx="888.446" fy="46.3525" r="84.45" gradientUnits="userSpaceOnUse" gradientTransform="matrix(0.653973 0.756518 4.53911 -3.92384 0 0)">
    <stop offset="0" stop-color="rgb(36,139,241)"/>
    <stop offset="0.637581" stop-color="rgb(36,139,241)"/>
    <stop offset="0.654839" stop-color="rgb(37,138,244)"/>
    <stop offset="0.706613" stop-color="rgb(42,135,244)"/>
    <stop offset="0.741129" stop-color="rgb(43,131,242)"/>
    <stop offset="0.758387" stop-color="rgb(44,131,244)"/>
    <stop offset="0.792903" stop-color="rgb(46,128,242)"/>
    <stop offset="0.827419" stop-color="rgb(41,127,247)"/>
    <stop offset="0.861935" stop-color="rgb(47,128,244)"/>
    <stop offset="0.896452" stop-color="rgb(40,128,246)"/>
    <stop offset="0.948226" stop-color="rgb(39,126,248)"/>
    <stop offset="0.965484" stop-color="rgb(38,126,246)"/>
    <stop offset="1" stop-color="rgb(42,127,238)"/>
  </radialGradient>
</defs>
<path d="M 333.619 435 C 334.903 424.794, 341.043 402.362, 344.98 393.5 C 350.36 381.388, 356.929 368.695, 359.694 365.067 C 360.351 364.205, 363.031 360.615, 365.65 357.09 C 372.192 348.281, 384.659 335.31, 393.3 328.323 C 397.26 325.12, 400.65 322.163, 400.833 321.75 C 401.017 321.337, 401.719 321, 402.395 321 C 403.07 321, 404.518 320.212, 405.612 319.25 C 408.383 316.813, 410.854 315.41, 424 308.81 C 430.325 305.634, 436.069 303.028, 436.764 303.018 C 437.459 303.008, 438.809 302.575, 439.764 302.056 C 443.011 300.291, 454.468 297.152, 466 294.869 C 482.689 291.565, 511.683 291.557, 527.5 294.851 C 538.245 297.089, 552.992 301.539, 560 304.657 C 567.68 308.075, 574.526 311.438, 575 312.026 C 575.275 312.367, 576.175 312.94, 577 313.3 C 579.263 314.287, 587.444 319.236, 590.554 321.5 C 600.491 328.732, 620.738 348.44, 625.999 356 C 627.338 357.925, 629.011 360.095, 629.717 360.821 C 630.423 361.548, 631 362.529, 631 363 C 631 363.471, 631.563 364.452, 632.252 365.179 C 635.929 369.061, 644.725 385.983, 649.832 399 C 652.609 406.078, 655.661 418.119, 657.564 429.5 C 659.291 439.831, 660.616 465.411, 659.628 469.348 C 659.406 470.232, 659.184 471.116, 658.962 472 C 655.342 472, 651.723 472, 648.103 472 C 644.484 472, 640.864 472, 637.244 472 C 637.058 465.917, 636.872 459.833, 636.686 453.75 C 636.116 435.135, 634.907 427.352, 630.075 411.213 C 627.722 403.353, 620.346 388.27, 615.193 380.781 C 613.437 378.228, 612 375.658, 612 375.07 C 612 374.481, 611.647 374, 611.216 374 C 610.784 374, 609.602 372.596, 608.589 370.881 C 605.943 366.402, 589.797 349.847, 583.151 344.798 C 580.043 342.437, 577.275 340.269, 577 339.979 C 576.184 339.122, 570.76 335.69, 567 333.653 C 565.075 332.61, 561.656 330.733, 559.403 329.483 C 552.495 325.651, 534.062 319.336, 522.998 317.011 C 513.688 315.055, 510.341 314.856, 493.498 315.254 C 474.311 315.707, 471.352 316.151, 454.5 321.096 C 447.776 323.069, 445.507 323.94, 437.25 327.714 C 433.292 329.524, 420.199 336.87, 418.5 338.234 C 417.95 338.676, 413.675 341.892, 409 345.382 C 399.107 352.767, 391.388 360.676, 384.486 370.5 C 381.781 374.35, 379.326 377.725, 379.031 378 C 377.734 379.207, 372.113 389.142, 368.701 396.259 C 363.935 406.197, 360.256 417.147, 357.869 428.5 C 355.307 440.686, 355.103 470.15, 357.497 482.197 C 359.003 489.777, 362.731 502.542, 364.886 507.5 C 366.868 512.061, 372.498 523.537, 372.98 524 C 373.464 524.466, 374.754 526.651, 377.406 531.5 C 378.008 532.6, 378.755 533.725, 379.066 534 C 379.377 534.275, 381.016 536.525, 382.707 539 C 385.494 543.08, 402.484 563.799, 404.027 565 C 405.06 565.804, 414.589 580.132, 416.996 584.5 C 423.399 596.121, 430.985 613.646, 431.015 616.883 C 431.023 617.773, 431.652 620.3, 432.414 622.5 C 433.175 624.7, 434.543 630.775, 435.452 636 C 438.549 653.786, 438.042 652.521, 442 652.341 C 447.919 652.073, 455.018 650.78, 455.582 649.867 C 455.877 649.39, 457.329 648.98, 458.809 648.956 C 461.88 648.906, 469.884 646.882, 471.75 645.684 C 473.264 644.713, 473.532 610.895, 472.087 603.299 C 471.584 600.66, 470.653 594.45, 470.016 589.5 C 466.941 565.575, 461.427 541.278, 455.151 524 C 452.617 517.023, 451.368 516.226, 445.838 518.061 C 439.148 520.28, 424.621 519.829, 418.801 517.221 C 412.624 514.453, 405.829 507.431, 404.25 502.184 C 402.756 497.221, 402.588 485.372, 404 484.5 C 404.55 484.16, 405 482.784, 405 481.441 C 405 480.098, 405.353 479, 405.784 479 C 406.216 479, 407.324 477.722, 408.247 476.159 C 409.17 474.597, 412.592 471.897, 415.852 470.159 C 428.876 463.218, 441.159 467.478, 450.121 482.043 C 455.255 490.386, 457.493 489.433, 472.5 472.516 C 475.8 468.796, 478.956 465.245, 479.514 464.626 C 480.072 464.007, 482.997 460.592, 486.014 457.038 C 489.031 453.484, 492.4 449.616, 493.5 448.443 C 496.325 445.43, 508.158 432.099, 510.231 429.593 C 511.184 428.442, 512.36 427.022, 512.846 426.437 C 514.912 423.951, 516 420.906, 516 417.613 C 516 409.324, 511.244 403.932, 496.75 395.79 C 481.344 387.135, 481.917 385.824, 503.616 380.088 C 512.689 377.69, 525.57 379.157, 534.148 383.566 C 539.125 386.125, 548.008 392.352, 552.104 396.154 C 554.087 397.994, 557.279 400.85, 559.199 402.5 C 563.613 406.295, 565 408.928, 565 413.511 C 565 416.204, 565.762 417.916, 567.923 420.077 C 570.476 422.63, 571.574 423, 576.594 423 C 582.108 423, 582.52 423.185, 586.686 427.533 C 591.751 432.819, 591.622 433.498, 583.995 441.672 C 581.517 444.327, 577.017 449.425, 573.995 453 C 564.936 463.716, 564.41 463.874, 557.641 457.915 C 553.799 454.533, 553 453.234, 553 450.365 C 553 445.774, 550.502 441.141, 547.387 439.957 C 543.404 438.443, 534.127 438.809, 531.154 440.597 C 529.694 441.476, 524.9 446.459, 520.5 451.672 C 516.1 456.884, 511.825 461.903, 511 462.825 C 510.175 463.746, 507.483 466.975, 505.019 470 C 498.901 477.509, 476.567 499.715, 470.818 504.005 C 463.715 509.306, 463.341 510.957, 467.083 520.5 C 467.515 521.6, 468.344 524.075, 468.926 526 C 469.508 527.925, 470.697 531.75, 471.567 534.5 C 472.438 537.25, 473.54 541.3, 474.018 543.5 C 474.495 545.7, 475.617 550.875, 476.512 555 C 477.407 559.125, 478.539 564.075, 479.028 566 C 482.323 578.976, 484.94 604.778, 484.974 624.628 C 485.005 642.415, 485.053 642.512, 493.475 641.46 C 500.237 640.615, 501 639.51, 501 630.566 C 501 624.684, 501.207 624, 502.984 624 C 504.809 624, 512.985 620.395, 519 616.937 C 523.129 614.564, 531.534 605.772, 533.758 601.5 C 537.055 595.167, 538 591.205, 538 583.717 C 538 570.836, 535.078 563.844, 525.921 554.813 C 518.497 547.49, 507.208 541.35, 497 539.083 C 489.505 537.417, 487.003 536.043, 486.985 533.581 C 486.968 531.276, 484.759 524.425, 483.685 523.352 C 483.308 522.975, 483 520.968, 483 518.893 C 483 515.374, 483.917 514.21, 496.569 501.667 C 501.092 497.183, 505.615 492.699, 510.138 488.215 C 528.832 488.096, 547.525 487.977, 566.219 487.857 C 597.063 487.661, 624.82 487.725, 627.9 488 C 629.766 488.167, 631.633 488.333, 633.5 488.5 C 633.607 489.999, 633.713 491.499, 633.82 492.998 C 634.419 501.436, 632.036 501, 677.596 501 C 702.496 501, 718.111 501.37, 718.48 501.968 C 719.404 503.463, 715.594 511.011, 710.489 517.802 C 701.067 530.337, 686.606 540.611, 666.5 549.057 C 664.755 549.79, 657.711 552.016, 647.429 555.084 C 645.74 555.588, 642.995 556, 641.328 556 C 633.721 556, 622.372 562.81, 618.226 569.863 C 615.749 574.077, 615.5 575.413, 615.5 584.5 C 615.5 595.942, 617.009 599.908, 624.36 607.793 C 628.367 612.09, 638.992 620, 640.757 620 C 641.234 620, 643.487 620.9, 645.764 622 C 648.041 623.1, 650.773 624, 651.835 624 C 654.464 624, 654.97 626.5, 654.986 639.559 C 654.996 646.997, 654.58 651.192, 653.717 652.372 C 652.558 653.958, 650.604 654.096, 633.317 653.813 C 626.944 653.709, 620.571 653.604, 614.198 653.5 C 612.228 651.461, 610.258 649.421, 608.288 647.382 C 601.145 639.988, 596.265 636.791, 587.955 634.063 C 572.763 629.076, 559.176 633.348, 545.378 647.45 C 539.731 653.222, 537.453 654.87, 534.378 655.409 C 532.245 655.783, 524.425 657.482, 517 659.185 C 509.575 660.888, 501.7 662.603, 499.5 662.996 C 497.3 663.39, 492.35 664.497, 488.5 665.458 C 475.904 668.6, 470.574 669.812, 459.5 672.05 C 456.2 672.717, 450.125 674.071, 446 675.058 C 436.197 677.404, 427.918 678.361, 424.298 677.565 C 419.668 676.549, 417.899 672.257, 415.848 657.077 C 412.864 634.98, 411.641 629.854, 405.688 614.5 C 402.074 605.178, 393.72 588.517, 391.9 587 C 391.57 586.725, 391.12 585.98, 390.9 585.345 C 390.582 584.429, 378.403 569.709, 364.75 553.741 C 363.788 552.615, 363 551.383, 363 551.003 C 363 550.622, 361.876 549.004, 360.501 547.406 C 359.127 545.807, 358.002 543.938, 358.001 543.25 C 358.001 542.562, 357.598 542, 357.107 542 C 356.19 542, 347.28 524.272, 345.045 518 C 344.359 516.075, 343.409 513.6, 342.933 512.5 C 341.572 509.351, 338.271 498.037, 336.952 492 C 336.291 488.975, 335.321 485.15, 334.795 483.5 C 333.8 480.379, 332.849 441.127, 333.619 435 Z M 440.864 490.446 C 435.65 482.223, 430.756 479.26, 424.366 480.459 C 414.62 482.288, 411.732 493.606, 419.314 500.254 C 424.095 504.445, 435.154 504.499, 441.75 500.364 C 444.778 498.466, 444.586 496.315, 440.864 490.446 Z " fill="url(#grad_1)" />
<path d="M 423.429 701.396 C 425.029 697.721, 429.886 694, 433.083 694 C 434.334 694, 436.74 693.567, 438.429 693.038 C 441.148 692.187, 449.556 690.296, 465.5 686.951 C 471.957 685.596, 477.39 684.398, 483 683.092 C 485.475 682.516, 492.45 680.935, 498.5 679.58 C 508.548 677.328, 516.843 675.424, 541 669.82 C 567.221 663.738, 567.907 663.707, 572.6 668.4 C 576.633 672.433, 577.059 676.551, 573.96 681.564 C 571.811 685.043, 567.184 687.308, 559 688.891 C 556.525 689.37, 546.4 691.63, 536.5 693.914 C 526.6 696.198, 512.425 699.385, 505 700.995 C 480.206 706.374, 468.039 709.089, 451 713.045 C 432.642 717.306, 427.932 716.782, 424.151 710.055 C 421.656 705.615, 421.646 705.494, 423.429 701.396 Z " fill="url(#radgrad_2)" />
<path d="M 450.25 732.982 C 452.951 729.004, 458.017 727.267, 479.5 722.951 C 481.7 722.509, 487.325 721.179, 492 719.995 C 496.675 718.811, 505.45 716.74, 511.5 715.393 C 528.535 711.598, 530.03 711.26, 537.5 709.511 C 541.35 708.609, 545.882 707.451, 547.571 706.936 C 553.683 705.073, 557.605 705.762, 561.429 709.368 C 564.4 712.17, 565 713.428, 565 716.852 C 565 723.324, 561.435 726.451, 551.049 729.09 C 542.648 731.225, 542.547 731.289, 534.049 739.869 C 528.758 745.211, 523.595 749.403, 520.5 750.868 C 517.75 752.171, 514.419 753.746, 513.097 754.368 C 511.711 755.021, 505.572 755.489, 498.597 755.474 C 486.681 755.449, 486.383 755.393, 478.688 751.682 C 471.47 748.201, 470.43 747.965, 464.995 748.58 C 455.933 749.605, 451.314 747.585, 449.038 741.601 C 447.569 737.736, 447.711 736.721, 450.25 732.982 Z " fill="url(#radgrad_3)" />
</svg>
